<?xml version="1.0" standalone="no"?>
<!DOCTYPE svg PUBLIC "-//W3C//DTD SVG 20010904//EN"
 "http://www.w3.org/TR/2001/REC-SVG-20010904/DTD/svg10.dtd">
<svg version="1.0" xmlns="http://www.w3.org/2000/svg"
 width="341.000000pt" height="134.000000pt" viewBox="0 0 341.000000 134.000000"
 preserveAspectRatio="xMidYMid meet">

<g transform="translate(0.000000,134.000000) scale(0.100000,-0.100000)"
fill="#000000" stroke="none">
<path d="M1249 418 c-3 -81 -4 -83 -27 -86 -27 -4 -40 23 -23 49 6 11 7 19 1
19 -16 0 -23 -49 -10 -65 7 -8 25 -14 41 -13 28 2 29 4 29 60 0 32 -2 58 -5
58 -3 0 -5 -10 -6 -22z"/>
<path d="M2397 422 c-2 -11 -1 -37 3 -58 6 -38 7 -38 11 19 4 55 -4 77 -14 39z"/>
<path d="M1499 420 c-4 -9 -4 -33 0 -55 5 -30 11 -40 26 -42 15 -1 16 -1 3 3
-13 4 -18 19 -20 57 -2 29 -6 45 -9 37z"/>
<path d="M938 403 c-14 -3 -18 -14 -16 -46 1 -40 1 -40 5 -8 3 19 12 41 21 48
18 13 17 13 -10 6z"/>
<path d="M710 385 c-10 -12 -10 -21 -2 -40 9 -20 18 -25 42 -23 28 2 30 5 30
40 0 21 -4 38 -8 38 -5 0 -7 -13 -4 -30 5 -36 -21 -51 -46 -26 -14 13 -14 20
-4 36 14 24 10 26 -8 5z"/>
<path d="M821 343 c1 -62 6 -56 11 15 2 23 0 42 -4 42 -5 0 -7 -26 -7 -57z"/>
<path d="M875 384 c20 -20 15 -35 -16 -51 -17 -9 -19 -13 -7 -13 15 0 48 25
48 36 0 13 -22 44 -31 44 -6 0 -3 -7 6 -16z"/>
<path d="M984 375 c-8 -32 11 -55 45 -54 26 1 26 1 -3 8 -41 9 -46 31 -7 31
31 0 43 21 21 35 -6 3 -7 -1 -4 -9 5 -12 -1 -16 -21 -16 -23 0 -26 2 -15 15 8
10 9 15 1 15 -6 0 -13 -11 -17 -25z"/>
<path d="M1081 358 c2 -35 3 -37 6 -13 3 17 9 36 15 43 8 9 6 12 -6 12 -12 0
-16 -9 -15 -42z"/>
<path d="M1138 375 c2 -14 6 -25 8 -25 2 0 4 11 4 25 0 14 -4 25 -9 25 -4 0
-6 -11 -3 -25z"/>
<path d="M1297 393 c-11 -11 -8 -48 5 -61 7 -7 21 -12 33 -11 17 1 17 2 -4 8
-38 10 -38 31 -1 31 24 0 31 4 28 17 -2 9 -9 18 -16 19 -7 1 -8 0 -2 -3 19 -9
10 -23 -16 -23 -19 0 -25 4 -20 15 6 16 3 19 -7 8z"/>
<path d="M1390 360 c0 -22 2 -40 4 -40 2 0 6 18 8 40 2 22 0 40 -4 40 -5 0 -8
-18 -8 -40z"/>
<path d="M1567 393 c-11 -11 -8 -48 5 -61 7 -7 21 -12 33 -11 17 1 17 2 -4 8
-37 10 -38 31 -2 31 31 0 43 21 21 35 -6 3 -7 -1 -4 -9 5 -12 0 -16 -20 -16
-27 0 -35 15 -13 23 6 3 7 6 1 6 -6 1 -14 -2 -17 -6z"/>
<path d="M1662 358 c1 -41 1 -41 5 -8 3 19 10 38 16 42 8 5 6 8 -5 8 -15 0
-18 -8 -16 -42z"/>
<path d="M1720 356 l5 -41 3 35 c2 19 9 38 15 42 7 4 3 6 -8 6 -17 -2 -20 -7
-15 -42z"/>
<path d="M1768 388 c7 -7 13 -26 13 -42 1 -19 3 -24 6 -13 7 26 -5 67 -19 67
-9 0 -9 -3 0 -12z"/>
<path d="M1867 393 c-22 -21 2 -74 33 -72 9 0 6 4 -7 9 -25 10 -32 55 -10 63
6 3 7 6 1 6 -6 1 -14 -2 -17 -6z"/>
<path d="M1970 385 c-17 -20 -3 -54 26 -61 14 -4 28 -4 31 0 4 3 -3 6 -14 6
-11 0 -26 7 -33 15 -11 13 -8 15 17 15 16 0 32 3 36 6 8 8 -3 34 -15 34 -6 0
-5 -6 2 -15 11 -13 8 -15 -15 -15 -20 0 -26 4 -21 15 7 19 2 19 -14 0z"/>
<path d="M2110 385 c0 -8 9 -19 20 -25 26 -14 26 -27 0 -33 -17 -4 -17 -4 2
-3 30 1 36 32 8 41 -13 4 -19 12 -16 21 3 8 1 14 -4 14 -6 0 -10 -7 -10 -15z"/>
<path d="M2197 393 c-18 -18 -5 -33 29 -33 28 0 35 4 32 17 -2 9 -9 18 -16 19
-7 1 -8 0 -2 -3 19 -9 10 -23 -16 -23 -19 0 -25 4 -20 15 6 16 3 19 -7 8z"/>
<path d="M2290 360 c0 -22 2 -40 4 -40 2 0 6 18 8 40 2 22 0 40 -4 40 -5 0 -8
-18 -8 -40z"/>
<path d="M2450 380 c-6 -11 -9 -20 -8 -20 2 0 11 9 21 20 9 11 13 20 7 20 -5
0 -14 -9 -20 -20z"/>
<path d="M2505 390 c3 -5 8 -10 11 -10 2 0 4 5 4 10 0 6 -5 10 -11 10 -5 0 -7
-4 -4 -10z"/>
<path d="M2562 388 c-7 -7 -12 -18 -12 -24 0 -18 29 -44 48 -43 12 0 10 3 -6
9 -28 12 -38 36 -22 55 15 18 9 20 -8 3z"/>
<path d="M2643 360 c0 -25 2 -35 4 -22 2 12 2 32 0 45 -2 12 -4 2 -4 -23z"/>
<path d="M2190 342 c0 -13 47 -28 57 -18 4 3 -3 6 -13 6 -11 0 -25 5 -32 12
-9 9 -12 9 -12 0z"/>
<path d="M2450 340 c0 -9 39 -25 45 -18 2 2 -7 8 -21 15 -13 6 -24 7 -24 3z"/>
<path d="M2690 330 c0 -5 5 -10 11 -10 5 0 7 5 4 10 -3 6 -8 10 -11 10 -2 0
-4 -4 -4 -10z"/>
</g>
</svg>
